<svg width="48" height="48" viewBox="0 0 48 48" fill="none" xmlns="http://www.w3.org/2000/svg">
<path d="M13.7484 17.0295V38.1333C13.7495 39.0074 14.079 39.8456 14.6645 40.4639C15.2503 41.0818 16.0445 41.4295 16.8728 41.4307H31.8698C32.6981 41.4295 33.4923 41.0818 34.0781 40.4639C34.6637 39.8456 34.9931 39.0074 34.9942 38.1333V17.0295C34.9931 16.1554 34.6636 15.3172 34.0781 14.6989C33.4923 14.0809 32.6981 13.7333 31.8698 13.7321H16.8728C16.0445 13.7332 15.2503 14.0809 14.6645 14.6989C14.079 15.3172 13.7496 16.1554 13.7484 17.0295ZM33.7445 17.0295V38.1333C33.7445 38.6579 33.547 39.1614 33.1955 39.5323C32.844 39.9032 32.3669 40.1117 31.8699 40.1117H16.8728C16.3757 40.1117 15.8987 39.9033 15.5472 39.5323C15.1958 39.1613 14.9982 38.6578 14.9982 38.1333V17.0295C14.9982 16.5049 15.1957 16.0014 15.5472 15.6305C15.8987 15.2596 16.3758 15.0511 16.8728 15.0511H31.8699C32.367 15.0511 32.844 15.2595 33.1955 15.6305C33.5469 16.0015 33.7445 16.5049 33.7445 17.0295Z" fill="#285BF4"/>
<path d="M16.875 26.8014C16.8756 27.3581 17.0856 27.8919 17.4586 28.2858C17.8318 28.6794 18.3376 28.9011 18.8651 28.9017H29.8822C30.4097 28.9011 30.9155 28.6794 31.2887 28.2858C31.6617 27.8919 31.8717 27.3581 31.8723 26.8014V18.4714C31.8717 17.9147 31.6617 17.3809 31.2887 16.987C30.9155 16.5934 30.4097 16.3717 29.8822 16.3711H18.8651C18.3376 16.3717 17.8318 16.5934 17.4586 16.987C17.0856 17.3809 16.8756 17.9147 16.875 18.4714V26.8014ZM18.1248 18.4722V18.4719C18.125 18.0406 18.4564 17.6908 18.8651 17.6905H29.8822C30.2909 17.6908 30.6223 18.0406 30.6226 18.4719V26.8018C30.6223 27.2332 30.2909 27.5829 29.8822 27.5832H18.8651C18.4564 27.5829 18.125 27.2332 18.1248 26.8018V18.4722Z" fill="#285BF4"/>
<path d="M25.6221 4.5H23.1226C22.6255 4.5 22.1484 4.70844 21.797 5.07941C21.4456 5.45038 21.248 5.95386 21.248 6.47844V11.0949H16.8739C15.3828 11.0966 13.9534 11.7226 12.899 12.8352C11.8447 13.9481 11.2517 15.4567 11.25 17.0303V38.1341C11.2517 39.7077 11.8447 41.2163 12.899 42.3292C13.9535 43.4418 15.3828 44.0677 16.8739 44.0695H31.8709C33.362 44.0677 34.7914 43.4418 35.8458 42.3292C36.9001 41.2163 37.4931 39.7077 37.4948 38.1341V17.0303C37.4931 15.4567 36.9001 13.948 35.8458 12.8352C34.7913 11.7226 33.362 11.0967 31.8709 11.0949H27.4968V6.47844C27.4968 5.95379 27.2993 5.45031 26.9478 5.07941C26.5963 4.70851 26.1192 4.5 25.6222 4.5H25.6221ZM22.4977 6.47848C22.4977 6.11429 22.7775 5.81898 23.1226 5.81898H23.7475V7.79746C23.7475 8.16165 24.0273 8.45695 24.3724 8.45695C24.7174 8.45695 24.9972 8.16165 24.9972 7.79746V5.81898H25.6221C25.7878 5.81898 25.9468 5.88847 26.064 6.01212C26.1812 6.13578 26.247 6.30359 26.247 6.47848V11.0949H22.4977V6.47848ZM31.8709 12.4139C33.0305 12.4154 34.1422 12.9023 34.9623 13.7676C35.7822 14.6332 36.2436 15.8065 36.245 17.0304V38.1341C36.2436 39.358 35.7822 40.5313 34.9623 41.3968C34.1422 42.2621 33.0305 42.749 31.8709 42.7505H16.8739C15.7142 42.7491 14.6025 42.2621 13.7824 41.3968C12.9626 40.5313 12.5011 39.358 12.4997 38.1341V17.0304C12.5011 15.8065 12.9625 14.6332 13.7824 13.7676C14.6025 12.9024 15.7142 12.4154 16.8739 12.4139H31.8709Z" fill="#285BF4"/>
<path d="M24.376 25.9369C25.1007 25.936 25.7956 25.6319 26.3081 25.0907C26.8208 24.5499 27.109 23.8165 27.1098 23.0516C27.1098 22.2475 26.5173 21.0652 25.3491 19.5371C25.1041 19.2398 24.7493 19.0687 24.376 19.0687C24.0028 19.0687 23.648 19.2398 23.403 19.5371C22.2345 21.0651 21.6422 22.2475 21.6422 23.0516C21.643 23.8165 21.9312 24.5499 22.444 25.0907C22.9564 25.6319 23.6513 25.936 24.3761 25.9369H24.376ZM24.376 20.3654C25.4715 21.7977 25.86 22.7078 25.86 23.0517C25.86 23.6114 25.5772 24.1283 25.118 24.408C24.6588 24.688 24.093 24.688 23.6339 24.408C23.1747 24.1283 22.8918 23.6114 22.8918 23.0517C22.8918 22.7054 23.2804 21.798 24.3759 20.3654H24.376Z" fill="#285BF4"/>
<path d="M24.3712 30.8789C23.4598 30.8789 22.5856 31.2611 21.9409 31.9412C21.2965 32.6216 20.9344 33.5443 20.9344 34.5061C20.9344 35.4679 21.2965 36.3907 21.9409 37.071C22.5856 37.7511 23.4599 38.1333 24.3712 38.1333C25.2825 38.1333 26.1569 37.7512 26.8015 37.071C27.4459 36.3907 27.808 35.4679 27.808 34.5061C27.8069 33.5445 27.4445 32.6228 26.8002 31.9426C26.1558 31.2625 25.2823 30.88 24.3712 30.8789ZM24.3712 36.8143C23.7912 36.8143 23.235 36.5711 22.8247 36.1384C22.4146 35.7053 22.1842 35.1182 22.1842 34.5061C22.1842 33.894 22.4146 33.307 22.8247 32.8739C23.235 32.4411 23.7913 32.1979 24.3712 32.1979C24.9512 32.1979 25.5074 32.4411 25.9178 32.8739C26.3278 33.307 26.5583 33.894 26.5583 34.5061C26.5583 35.1182 26.3278 35.7053 25.9178 36.1384C25.5074 36.5711 24.9512 36.8143 24.3712 36.8143Z" fill="#285BF4"/>
<path d="M25.0013 34.5056C25.0013 34.8698 24.7215 35.1651 24.3765 35.1651C24.0314 35.1651 23.7516 34.8698 23.7516 34.5056C23.7516 34.1414 24.0314 33.8461 24.3765 33.8461C24.7215 33.8461 25.0013 34.1414 25.0013 34.5056Z" fill="#285BF4"/>
</svg>
