<svg width="48" height="48" viewBox="0 0 48 48" fill="none" xmlns="http://www.w3.org/2000/svg">
<path d="M7.44794 28.718C4.5602 28.718 2.25 31.1561 2.25 34.2038C2.25 37.2516 4.5602 39.6897 7.44794 39.6897C10.3357 39.6897 12.6459 37.2516 12.6459 34.2038C12.6459 31.1561 10.3357 28.718 7.44794 28.718ZM7.44794 38.1659C5.35433 38.1659 3.69387 36.4134 3.69387 34.2038C3.69387 31.9942 5.35433 30.2418 7.44794 30.2418C9.54155 30.2418 11.202 31.9942 11.202 34.2038C11.202 36.3372 9.54155 38.1659 7.44794 38.1659Z" fill="#285BF4"/>
<path d="M45.9971 16.9837C45.9971 13.0217 43.1815 9.82157 39.4996 9.44061V9.05964C39.4996 6.92624 37.8392 5.25 35.89 5.25H26.7936C24.7722 5.25 23.1839 7.00244 23.1839 9.05964V24.9078C23.1839 27.0412 24.8443 28.7174 26.7936 28.7174H30.6198V35.8033C30.6198 38.8511 28.2374 41.3654 25.3497 41.3654C22.462 41.3654 20.0796 38.8511 20.0796 35.8033V21.6315C20.0796 17.7456 17.0474 14.5455 13.3656 14.5455C9.68368 14.5455 6.65155 17.7456 6.65155 21.6315V27.1935C6.65155 27.6507 6.94032 27.9555 7.37349 27.9555C7.80665 27.9555 8.09542 27.6507 8.09542 27.1935V21.6315C8.09542 18.5838 10.4778 16.0694 13.3656 16.0694C16.2533 16.0694 18.6357 18.5838 18.6357 21.6315V35.8033C18.6357 39.6892 21.6678 42.8893 25.3497 42.8893C29.0316 42.8893 32.0637 39.6892 32.0637 35.8033V28.7174H35.89C37.9114 28.7174 39.4996 26.965 39.4996 24.9078V24.5268C43.1093 24.1458 45.9971 20.8695 45.9971 16.9837ZM35.89 27.1935H31.4862H31.414H31.3418H26.8658C25.6385 27.1935 24.7 26.1268 24.7 24.9078V8.98301C24.7 7.68774 25.7107 6.69723 26.8658 6.69723H35.9622C37.1895 6.69723 38.128 7.76393 38.128 8.98301V9.36398C34.5183 9.74494 31.6305 13.0212 31.6305 16.9071C31.6305 20.7929 34.4461 24.0692 38.128 24.4502V24.8311C38.0558 26.2026 37.0451 27.1931 35.89 27.1931V27.1935ZM39.4996 22.9267V22.0124C39.4996 21.5553 39.2109 21.2505 38.7777 21.2505C38.3446 21.2505 38.0558 21.5553 38.0558 22.0124V22.9267C35.4568 22.5458 33.4354 20.4124 33.0744 17.6694H33.9407C34.3739 17.6694 34.6627 17.3647 34.6627 16.9075C34.6627 16.4504 34.3739 16.1456 33.9407 16.1456H33.0744C33.4354 13.4026 35.4568 11.2692 38.0558 10.8883V12.1836C38.0558 12.6407 38.3446 12.9455 38.7777 12.9455C39.2109 12.9455 39.4996 12.6407 39.4996 12.1836V10.8883C42.0986 11.2692 44.12 13.4026 44.481 16.1456H43.6147C43.1815 16.1456 42.8927 16.4504 42.8927 16.9075C42.8927 17.3647 43.1815 17.6694 43.6147 17.6694H44.481C44.1922 20.4886 42.0986 22.622 39.4996 22.9267Z" fill="#285BF4"/>
<path d="M38.4922 14.847C38.2756 14.847 38.059 14.9232 37.9146 14.9994L36.182 13.1708C35.8932 12.866 35.46 12.866 35.1713 13.1708C34.8825 13.4755 34.8825 13.9327 35.1713 14.2375L36.9039 16.0661C36.8317 16.2947 36.8317 16.4471 36.8317 16.6756C36.8317 17.6662 37.6258 18.5043 38.5644 18.5043C39.5029 18.5043 40.297 17.6662 40.297 16.6756C40.297 15.6851 39.4307 14.847 38.4922 14.847ZM38.4922 16.9042C38.3478 16.9042 38.2034 16.7518 38.2034 16.5995C38.2034 16.5233 38.2034 16.4471 38.2756 16.4471C38.3478 16.3709 38.42 16.3709 38.42 16.3709C38.5644 16.3709 38.7087 16.5233 38.7087 16.6756C38.7087 16.828 38.6366 16.9042 38.4922 16.9042Z" fill="#285BF4"/>
</svg>
