<svg width="48" height="48" viewBox="0 0 48 48" fill="none" xmlns="http://www.w3.org/2000/svg">
<path d="M28.8703 28.9192V10.9214C28.8703 8.20758 26.7788 6 24.2072 6C21.6358 6 19.5437 8.20792 19.5437 10.9214V28.9183C18.0822 30.3112 17.25 32.2774 17.25 34.3658C17.25 38.4153 20.3709 41.7091 24.2068 41.7091C28.0431 41.7091 31.164 38.4153 31.164 34.3658C31.164 32.2784 30.332 30.3129 28.8703 28.919V28.9192ZM24.2068 40.261C21.1275 40.261 18.6225 37.6165 18.6225 34.3662C18.6225 32.5961 19.3667 30.9358 20.6654 29.8099C20.824 29.6721 20.9162 29.467 20.9162 29.2501V10.9213C20.9162 9.00636 22.3931 7.44842 24.2072 7.44842C25.8184 7.44842 27.1605 8.67805 27.4417 10.2946H25.4392C25.0605 10.2946 24.7532 10.6186 24.7532 11.0187C24.7532 11.4188 25.0605 11.7428 25.4392 11.7428H27.4978V14.5819H25.4392C25.0605 14.5819 24.7532 14.9059 24.7532 15.306C24.7532 15.7061 25.0605 16.0301 25.4392 16.0301H27.4978V18.8695H25.4392C25.0605 18.8695 24.7532 19.1935 24.7532 19.5936C24.7532 19.9937 25.0605 20.3177 25.4392 20.3177H27.4978V29.2506C27.4978 29.4668 27.5897 29.6726 27.7486 29.8103C29.0471 30.9368 29.7915 32.5972 29.7915 34.3667C29.7915 37.617 27.2859 40.2611 24.2069 40.2611L24.2068 40.261Z" fill="#285BF4"/>
<path d="M26.875 30.929L26.1229 30.2767V23.8774C26.1229 23.4773 25.8156 23.1533 25.4368 23.1533H22.972C22.5929 23.1533 22.2859 23.4773 22.2859 23.8774V30.2767L21.5338 30.928C20.5538 31.7784 19.9922 33.0306 19.9922 34.3656C19.9922 36.8174 21.8816 38.8117 24.2041 38.8117C26.5266 38.8117 28.4166 36.8173 28.4166 34.3656C28.4166 33.0309 27.855 31.778 26.875 30.929L26.875 30.929ZM24.2044 37.3633C22.6389 37.3633 21.365 36.0185 21.365 34.3655C21.365 33.4659 21.7441 32.6207 22.4053 32.0471L23.4076 31.1785C23.5662 31.0408 23.6584 30.8357 23.6584 30.6188L23.6581 24.6015H24.7504V30.6191C24.7504 30.836 24.8423 31.0411 25.0012 31.1789L26.0036 32.0485C26.6648 32.622 27.0438 33.4663 27.0438 34.3659C27.0441 36.0188 25.7703 37.3633 24.2044 37.3633H24.2044Z" fill="#285BF4"/>
<path d="M25.4473 33.6416C25.0685 33.6416 24.7612 33.9659 24.7612 34.3657C24.7612 34.6877 24.5133 34.9493 24.2085 34.9493C23.8294 34.9493 23.5225 35.2737 23.5225 35.6734C23.5225 36.0732 23.8294 36.3975 24.2085 36.3975C25.2699 36.3975 26.1337 35.4858 26.1337 34.3654C26.1334 33.9659 25.8261 33.6416 25.4473 33.6416L25.4473 33.6416Z" fill="#285BF4"/>
</svg>
