<svg width="48" height="48" viewBox="0 0 48 48" fill="none" xmlns="http://www.w3.org/2000/svg">
<mask id="path-1-inside-1_1_510" fill="white">
<path d="M24.0793 42H20.2388C19.9626 42 19.736 41.7933 19.7114 41.52L19.7043 41.4674C19.6971 41.4009 19.69 41.3309 19.69 41.2642L19.6936 40.4199C19.6971 39.9014 19.7007 39.3828 19.7007 38.8643C19.7007 38.6682 19.6971 38.4545 19.6689 38.2616C19.6547 38.1705 19.6407 38.1214 19.63 38.097C19.6015 38.09 19.5486 38.0864 19.4494 38.0864L18.2531 38.1111C17.6618 38.125 17.0708 38.1355 16.4795 38.1461L16.2425 38.1531C15.938 38.1599 15.6194 38.1705 15.2974 38.1391C14.423 38.055 13.7539 37.6346 13.3574 36.9162C13.1911 36.6113 13.1204 36.268 13.1415 35.8723C13.17 35.3923 13.1947 34.9123 13.216 34.4322C13.1204 34.4007 13.0176 34.3622 12.9149 34.3096C12.5187 34.11 12.2461 33.7666 12.1647 33.3671C12.0833 32.9747 12.1965 32.5649 12.4727 32.2389C12.5469 32.1513 12.6247 32.0743 12.7061 32.0008C12.4302 31.9202 12.1787 31.8186 11.9452 31.696C11.7575 31.5978 11.5805 31.4681 11.432 31.3247C11.0283 30.9358 10.947 30.4208 11.2125 29.909L11.5912 29.1802C11.977 28.4341 12.3628 27.6878 12.7557 26.9449C12.8724 26.7244 13.0212 26.5281 13.184 26.3775C14.3663 25.2843 15.7043 24.7484 17.145 24.7834C17.8246 24.8008 18.469 24.948 19.0565 25.2214C21.0104 26.1321 22.5219 27.4426 23.5485 29.1243C24.0368 29.9265 24.313 30.8481 24.3873 31.9446C24.5432 34.2043 24.5643 36.4957 24.5892 38.7134C24.5961 39.3264 24.6032 39.9395 24.6103 40.5528C24.6139 40.7629 24.6139 40.9731 24.6103 41.1868V41.4776C24.6103 41.765 24.3733 41.9997 24.0793 41.9997L24.0793 42ZM20.7521 40.949H23.5519C23.5519 40.8194 23.5519 40.693 23.5486 40.5634C23.5379 39.9505 23.5343 39.3337 23.5272 38.7205C23.5059 36.5205 23.4812 34.2432 23.3291 32.0148C23.2653 31.09 23.0387 30.3193 22.6386 29.6641C21.7114 28.1436 20.391 27.0014 18.6034 26.1709C18.1469 25.9607 17.6476 25.8452 17.1169 25.8311C15.9452 25.8067 14.8903 26.2306 13.9064 27.1416C13.8283 27.2115 13.754 27.3132 13.694 27.4253C13.3011 28.1681 12.9186 28.9109 12.5328 29.6535L12.1577 30.3857C12.1009 30.4945 12.1116 30.505 12.1755 30.568C12.2533 30.645 12.3489 30.7117 12.4478 30.7643C12.7665 30.9325 13.1381 31.0445 13.6195 31.118C13.7009 31.1321 13.7825 31.1532 13.8603 31.1741L13.931 31.1917C14.1505 31.2476 14.3097 31.4334 14.3275 31.6541L14.3311 31.7103C14.3453 31.8784 14.2779 32.0431 14.1505 32.1551L13.9132 32.3582C13.839 32.4249 13.7576 32.4878 13.6798 32.551C13.531 32.6736 13.3896 32.7859 13.2833 32.9085C13.2337 32.9643 13.1805 33.0519 13.2019 33.1501C13.2194 33.2342 13.2868 33.3112 13.3929 33.3674C13.4603 33.4023 13.5346 33.427 13.6091 33.4514C13.6973 33.4829 13.7858 33.5146 13.8743 33.5531C14.0902 33.6475 14.2993 33.8965 14.2886 34.1837C14.2672 34.7652 14.2355 35.3469 14.2037 35.9283C14.193 36.1282 14.2212 36.2823 14.2922 36.4119C14.5152 36.822 14.8796 37.0425 15.4 37.0916C15.6584 37.1162 15.931 37.1092 16.2141 37.1021L16.4585 37.0951C17.0495 37.0845 17.6372 37.0707 18.2283 37.0601L19.4249 37.0357C20.1823 37.0216 20.6035 37.3614 20.7133 38.1078C20.7522 38.367 20.7593 38.6228 20.7593 38.861C20.7593 39.383 20.7558 39.9015 20.7522 40.4236L20.7521 40.949ZM35.746 41.9929H27.2151C26.9321 41.9929 26.6984 41.7757 26.6841 41.4955L26.6806 41.4323C26.677 41.3694 26.6734 41.3062 26.6734 41.2433L26.6912 38.2966C26.709 35.7671 26.723 33.234 26.7337 30.7042V30.3503C26.7337 29.7021 26.7302 29.0331 26.8329 28.3604C26.9639 27.5089 27.208 26.4053 27.9407 25.4314C28.4046 24.8182 29.031 24.3803 29.8026 24.1315C30.4364 23.9284 30.9532 23.655 31.3815 23.2941C31.7072 23.021 31.8097 22.4674 31.6009 22.0856C31.4664 21.8366 31.0913 21.6896 30.8293 21.7842C30.5956 21.8683 30.3408 21.9944 30.0577 22.1764C29.2505 22.6914 28.3621 23.2135 27.3179 23.536C25.9549 23.9564 24.663 23.8899 23.4771 23.3396C23.1692 23.1962 22.7162 22.9719 22.3268 22.6494C21.6399 22.082 20.8223 21.8157 20.111 21.6334C18.8187 21.2971 17.5764 21.4056 16.4154 21.9524C14.6242 22.8002 13.3712 23.9493 12.5782 25.4629C12.1324 26.3213 11.8526 27.2461 11.6189 28.115L11.566 28.3043C11.5058 28.518 11.3145 28.6721 11.0915 28.6862C10.4544 28.7317 9.86689 28.5004 9.47046 28.0556C9.06685 27.6 8.91121 26.9695 9.0493 26.3283C9.13068 25.9394 9.26522 25.5575 9.43511 25.2247C10.1571 23.8058 10.9608 22.1029 11.4669 20.253C11.5907 19.7977 11.6685 19.3141 11.7359 18.8552C11.7642 18.6765 11.757 18.4769 11.7499 18.2632L11.7464 18.1474C11.6721 15.194 12.5782 12.6224 14.4401 10.506C15.7852 8.97507 17.4772 7.84336 19.6046 7.0376C21.8558 6.1933 24.1638 5.86027 26.4681 6.05314C30.1814 6.3615 33.3036 7.77693 35.7489 10.2609C37.5615 12.1038 38.6339 14.3461 38.9312 16.9247C39.0269 17.7549 39.0233 18.6132 38.917 19.4787C38.903 19.5839 38.9101 19.7065 38.917 19.8397C38.9241 19.9763 38.9277 20.113 38.9206 20.2495C38.8463 21.5879 38.4216 22.8422 38.064 23.7846C37.8092 24.4572 37.5012 25.1124 37.2075 25.75L37.0234 26.146C36.9456 26.3106 36.8392 26.4297 36.7507 26.5278C36.719 26.5628 36.6836 26.6013 36.6554 26.6401L36.5951 26.7277C36.5384 26.8047 36.4641 26.9132 36.4534 26.9623C36.3721 27.2986 36.2871 27.6455 36.2871 27.9679C36.2764 31.4399 36.28 34.9152 36.28 38.3873V41.4636C36.2764 41.7578 36.0358 41.9924 35.7454 41.9924L35.746 41.9929ZM27.7353 40.942H35.2115V38.3913C35.2115 34.9157 35.2115 31.4439 35.2186 27.968C35.2186 27.523 35.3211 27.0955 35.4131 26.7208C35.4734 26.4789 35.6079 26.2863 35.714 26.132L35.7671 26.0585C35.8203 25.9779 35.8874 25.9044 35.9548 25.8307C35.9902 25.7922 36.0433 25.7328 36.0538 25.7116L36.2379 25.3121C36.5248 24.6957 36.8256 24.0545 37.0662 23.4205C37.4203 22.4919 37.7883 21.3848 37.8556 20.1972C37.8628 20.0955 37.8556 19.9973 37.8521 19.8959C37.845 19.7345 37.8378 19.5525 37.8592 19.3597C37.9548 18.5783 37.9581 17.8005 37.8732 17.0509C37.6044 14.7069 36.6344 12.6715 34.9884 11.0003C32.7265 8.69826 29.831 7.38806 26.3794 7.10059C24.2345 6.92212 22.0858 7.23375 19.9901 8.02215C18.0258 8.76148 16.4752 9.80206 15.247 11.1964C13.5408 13.1338 12.7443 15.4006 12.8117 18.1231L12.8152 18.2316C12.8224 18.4805 12.8292 18.7395 12.7903 19.0094C12.7161 19.4964 12.6347 20.015 12.4966 20.5265C11.9656 22.4675 11.1339 24.2298 10.387 25.6978C10.2596 25.9501 10.1569 26.2443 10.093 26.5456C10.0259 26.8643 10.0897 27.1586 10.2736 27.3655C10.3763 27.481 10.5073 27.5616 10.663 27.6071C10.9002 26.7523 11.1869 25.8484 11.6401 24.9829C12.5391 23.2556 13.9552 21.9525 15.962 21.003C17.3531 20.3442 18.8435 20.2146 20.3831 20.614C21.1585 20.8137 22.1532 21.1361 23.0097 21.8402C23.2328 22.0259 23.5265 22.1976 23.9301 22.3869C24.8823 22.8282 25.8876 22.8773 27.0025 22.5339C27.9229 22.2502 28.737 21.7702 29.4804 21.2937C29.8344 21.0659 30.1564 20.9048 30.4715 20.7928C31.2292 20.5264 32.1528 20.8839 32.5386 21.588C32.9812 22.4043 32.7759 23.5045 32.0679 24.0966C31.53 24.5485 30.8962 24.8883 30.1282 25.1337C29.5618 25.3157 29.1229 25.617 28.7902 26.0621C28.3263 26.6788 28.0468 27.4354 27.8805 28.5216C27.7884 29.1172 27.792 29.7163 27.792 30.3504V30.7149C27.7848 33.248 27.767 35.7774 27.7495 38.3105L27.7353 40.942Z"/>
</mask>
<path d="M24.0793 42H20.2388C19.9626 42 19.736 41.7933 19.7114 41.52L19.7043 41.4674C19.6971 41.4009 19.69 41.3309 19.69 41.2642L19.6936 40.4199C19.6971 39.9014 19.7007 39.3828 19.7007 38.8643C19.7007 38.6682 19.6971 38.4545 19.6689 38.2616C19.6547 38.1705 19.6407 38.1214 19.63 38.097C19.6015 38.09 19.5486 38.0864 19.4494 38.0864L18.2531 38.1111C17.6618 38.125 17.0708 38.1355 16.4795 38.1461L16.2425 38.1531C15.938 38.1599 15.6194 38.1705 15.2974 38.1391C14.423 38.055 13.7539 37.6346 13.3574 36.9162C13.1911 36.6113 13.1204 36.268 13.1415 35.8723C13.17 35.3923 13.1947 34.9123 13.216 34.4322C13.1204 34.4007 13.0176 34.3622 12.9149 34.3096C12.5187 34.11 12.2461 33.7666 12.1647 33.3671C12.0833 32.9747 12.1965 32.5649 12.4727 32.2389C12.5469 32.1513 12.6247 32.0743 12.7061 32.0008C12.4302 31.9202 12.1787 31.8186 11.9452 31.696C11.7575 31.5978 11.5805 31.4681 11.432 31.3247C11.0283 30.9358 10.947 30.4208 11.2125 29.909L11.5912 29.1802C11.977 28.4341 12.3628 27.6878 12.7557 26.9449C12.8724 26.7244 13.0212 26.5281 13.184 26.3775C14.3663 25.2843 15.7043 24.7484 17.145 24.7834C17.8246 24.8008 18.469 24.948 19.0565 25.2214C21.0104 26.1321 22.5219 27.4426 23.5485 29.1243C24.0368 29.9265 24.313 30.8481 24.3873 31.9446C24.5432 34.2043 24.5643 36.4957 24.5892 38.7134C24.5961 39.3264 24.6032 39.9395 24.6103 40.5528C24.6139 40.7629 24.6139 40.9731 24.6103 41.1868V41.4776C24.6103 41.765 24.3733 41.9997 24.0793 41.9997L24.0793 42ZM20.7521 40.949H23.5519C23.5519 40.8194 23.5519 40.693 23.5486 40.5634C23.5379 39.9505 23.5343 39.3337 23.5272 38.7205C23.5059 36.5205 23.4812 34.2432 23.3291 32.0148C23.2653 31.09 23.0387 30.3193 22.6386 29.6641C21.7114 28.1436 20.391 27.0014 18.6034 26.1709C18.1469 25.9607 17.6476 25.8452 17.1169 25.8311C15.9452 25.8067 14.8903 26.2306 13.9064 27.1416C13.8283 27.2115 13.754 27.3132 13.694 27.4253C13.3011 28.1681 12.9186 28.9109 12.5328 29.6535L12.1577 30.3857C12.1009 30.4945 12.1116 30.505 12.1755 30.568C12.2533 30.645 12.3489 30.7117 12.4478 30.7643C12.7665 30.9325 13.1381 31.0445 13.6195 31.118C13.7009 31.1321 13.7825 31.1532 13.8603 31.1741L13.931 31.1917C14.1505 31.2476 14.3097 31.4334 14.3275 31.6541L14.3311 31.7103C14.3453 31.8784 14.2779 32.0431 14.1505 32.1551L13.9132 32.3582C13.839 32.4249 13.7576 32.4878 13.6798 32.551C13.531 32.6736 13.3896 32.7859 13.2833 32.9085C13.2337 32.9643 13.1805 33.0519 13.2019 33.1501C13.2194 33.2342 13.2868 33.3112 13.3929 33.3674C13.4603 33.4023 13.5346 33.427 13.6091 33.4514C13.6973 33.4829 13.7858 33.5146 13.8743 33.5531C14.0902 33.6475 14.2993 33.8965 14.2886 34.1837C14.2672 34.7652 14.2355 35.3469 14.2037 35.9283C14.193 36.1282 14.2212 36.2823 14.2922 36.4119C14.5152 36.822 14.8796 37.0425 15.4 37.0916C15.6584 37.1162 15.931 37.1092 16.2141 37.1021L16.4585 37.0951C17.0495 37.0845 17.6372 37.0707 18.2283 37.0601L19.4249 37.0357C20.1823 37.0216 20.6035 37.3614 20.7133 38.1078C20.7522 38.367 20.7593 38.6228 20.7593 38.861C20.7593 39.383 20.7558 39.9015 20.7522 40.4236L20.7521 40.949ZM35.746 41.9929H27.2151C26.9321 41.9929 26.6984 41.7757 26.6841 41.4955L26.6806 41.4323C26.677 41.3694 26.6734 41.3062 26.6734 41.2433L26.6912 38.2966C26.709 35.7671 26.723 33.234 26.7337 30.7042V30.3503C26.7337 29.7021 26.7302 29.0331 26.8329 28.3604C26.9639 27.5089 27.208 26.4053 27.9407 25.4314C28.4046 24.8182 29.031 24.3803 29.8026 24.1315C30.4364 23.9284 30.9532 23.655 31.3815 23.2941C31.7072 23.021 31.8097 22.4674 31.6009 22.0856C31.4664 21.8366 31.0913 21.6896 30.8293 21.7842C30.5956 21.8683 30.3408 21.9944 30.0577 22.1764C29.2505 22.6914 28.3621 23.2135 27.3179 23.536C25.9549 23.9564 24.663 23.8899 23.4771 23.3396C23.1692 23.1962 22.7162 22.9719 22.3268 22.6494C21.6399 22.082 20.8223 21.8157 20.111 21.6334C18.8187 21.2971 17.5764 21.4056 16.4154 21.9524C14.6242 22.8002 13.3712 23.9493 12.5782 25.4629C12.1324 26.3213 11.8526 27.2461 11.6189 28.115L11.566 28.3043C11.5058 28.518 11.3145 28.6721 11.0915 28.6862C10.4544 28.7317 9.86689 28.5004 9.47046 28.0556C9.06685 27.6 8.91121 26.9695 9.0493 26.3283C9.13068 25.9394 9.26522 25.5575 9.43511 25.2247C10.1571 23.8058 10.9608 22.1029 11.4669 20.253C11.5907 19.7977 11.6685 19.3141 11.7359 18.8552C11.7642 18.6765 11.757 18.4769 11.7499 18.2632L11.7464 18.1474C11.6721 15.194 12.5782 12.6224 14.4401 10.506C15.7852 8.97507 17.4772 7.84336 19.6046 7.0376C21.8558 6.1933 24.1638 5.86027 26.4681 6.05314C30.1814 6.3615 33.3036 7.77693 35.7489 10.2609C37.5615 12.1038 38.6339 14.3461 38.9312 16.9247C39.0269 17.7549 39.0233 18.6132 38.917 19.4787C38.903 19.5839 38.9101 19.7065 38.917 19.8397C38.9241 19.9763 38.9277 20.113 38.9206 20.2495C38.8463 21.5879 38.4216 22.8422 38.064 23.7846C37.8092 24.4572 37.5012 25.1124 37.2075 25.75L37.0234 26.146C36.9456 26.3106 36.8392 26.4297 36.7507 26.5278C36.719 26.5628 36.6836 26.6013 36.6554 26.6401L36.5951 26.7277C36.5384 26.8047 36.4641 26.9132 36.4534 26.9623C36.3721 27.2986 36.2871 27.6455 36.2871 27.9679C36.2764 31.4399 36.28 34.9152 36.28 38.3873V41.4636C36.2764 41.7578 36.0358 41.9924 35.7454 41.9924L35.746 41.9929ZM27.7353 40.942H35.2115V38.3913C35.2115 34.9157 35.2115 31.4439 35.2186 27.968C35.2186 27.523 35.3211 27.0955 35.4131 26.7208C35.4734 26.4789 35.6079 26.2863 35.714 26.132L35.7671 26.0585C35.8203 25.9779 35.8874 25.9044 35.9548 25.8307C35.9902 25.7922 36.0433 25.7328 36.0538 25.7116L36.2379 25.3121C36.5248 24.6957 36.8256 24.0545 37.0662 23.4205C37.4203 22.4919 37.7883 21.3848 37.8556 20.1972C37.8628 20.0955 37.8556 19.9973 37.8521 19.8959C37.845 19.7345 37.8378 19.5525 37.8592 19.3597C37.9548 18.5783 37.9581 17.8005 37.8732 17.0509C37.6044 14.7069 36.6344 12.6715 34.9884 11.0003C32.7265 8.69826 29.831 7.38806 26.3794 7.10059C24.2345 6.92212 22.0858 7.23375 19.9901 8.02215C18.0258 8.76148 16.4752 9.80206 15.247 11.1964C13.5408 13.1338 12.7443 15.4006 12.8117 18.1231L12.8152 18.2316C12.8224 18.4805 12.8292 18.7395 12.7903 19.0094C12.7161 19.4964 12.6347 20.015 12.4966 20.5265C11.9656 22.4675 11.1339 24.2298 10.387 25.6978C10.2596 25.9501 10.1569 26.2443 10.093 26.5456C10.0259 26.8643 10.0897 27.1586 10.2736 27.3655C10.3763 27.481 10.5073 27.5616 10.663 27.6071C10.9002 26.7523 11.1869 25.8484 11.6401 24.9829C12.5391 23.2556 13.9552 21.9525 15.962 21.003C17.3531 20.3442 18.8435 20.2146 20.3831 20.614C21.1585 20.8137 22.1532 21.1361 23.0097 21.8402C23.2328 22.0259 23.5265 22.1976 23.9301 22.3869C24.8823 22.8282 25.8876 22.8773 27.0025 22.5339C27.9229 22.2502 28.737 21.7702 29.4804 21.2937C29.8344 21.0659 30.1564 20.9048 30.4715 20.7928C31.2292 20.5264 32.1528 20.8839 32.5386 21.588C32.9812 22.4043 32.7759 23.5045 32.0679 24.0966C31.53 24.5485 30.8962 24.8883 30.1282 25.1337C29.5618 25.3157 29.1229 25.617 28.7902 26.0621C28.3263 26.6788 28.0468 27.4354 27.8805 28.5216C27.7884 29.1172 27.792 29.7163 27.792 30.3504V30.7149C27.7848 33.248 27.767 35.7774 27.7495 38.3105L27.7353 40.942Z" fill="#285BF4" stroke="#285BF4" stroke-width="2" mask="url(#path-1-inside-1_1_510)"/>
</svg>
