<svg width="48" height="48" viewBox="0 0 48 48" fill="none" xmlns="http://www.w3.org/2000/svg">
<path d="M30.8781 29.2615C28.8876 31.4578 25.6305 35.0861 24.2733 36.6137L17.6686 29.2615C17.3066 28.8795 16.7639 28.8795 16.4019 29.2615C16.04 29.6434 16.04 30.2162 16.4019 30.5983L23.7302 38.7145C23.911 38.9053 24.1827 39.0009 24.3635 39.0009C24.6349 39.0009 24.816 38.9053 24.9968 38.7145C24.9968 38.7145 29.7013 33.4626 32.3251 30.5983C32.6871 30.2163 32.6871 29.6435 32.3251 29.2615C31.8729 28.8795 31.2396 28.8795 30.878 29.2615H30.8781Z" fill="#285BF4"/>
<path d="M37.1225 24.2951C37.3033 24.486 37.575 24.5816 37.7558 24.5816C37.9366 24.5816 38.2083 24.486 38.3891 24.2951C40.2891 22.3856 41.1937 19.6164 40.9223 16.8474C40.5604 14.0783 39.0224 11.5955 36.5794 10.1635C32.3274 7.7764 26.99 9.20843 24.5464 13.5055C24.4559 13.601 24.4559 13.6963 24.3656 13.8874C23.2798 11.7867 21.2897 10.1635 19.0278 9.39953C16.6754 8.63557 14.2328 8.92196 12.1517 10.2587C9.79935 11.6911 8.17082 14.0782 7.80885 16.8473C7.44691 19.6164 8.35159 22.29 10.2515 24.2951C10.6134 24.6771 11.1561 24.6771 11.5181 24.2951C11.8801 23.9131 11.88 23.3403 11.5181 22.9583C10.0704 21.4304 9.34682 19.3299 9.61816 17.1337C9.8895 14.9374 11.1561 13.0278 13.0561 11.9775C14.7752 11.0227 16.6751 10.7362 18.575 11.3091C20.3843 11.8819 21.9226 13.1234 22.8273 14.8421C23.0987 15.4149 23.6414 15.7969 24.2751 15.7969C24.8178 15.8925 25.4511 15.6061 25.813 15.2241C25.9938 15.0333 25.9938 14.9377 26.2655 14.5557C28.256 11.2138 32.5083 9.97224 35.8557 11.9778C37.7557 13.1237 39.0222 15.0333 39.2936 17.2297C39.5651 19.426 38.8412 21.5263 37.3031 23.0543C36.7604 23.3403 36.7604 23.9131 37.1223 24.2952L37.1225 24.2951Z" fill="#285BF4"/>
<path d="M45.0826 25.6319H33.8639L32.5973 22.0036C32.5067 21.6216 32.2353 21.4307 31.8734 21.3352C31.5115 21.3352 31.2401 21.4308 30.9687 21.7172L27.983 26.3006L25.902 19.2348C25.8114 18.8528 25.4495 18.5664 25.0879 18.5664C24.7259 18.5664 24.364 18.8528 24.1832 19.2348L22.3739 24.5819L20.1121 21.6219C19.9313 21.3355 19.6596 21.2399 19.298 21.2399C19.0266 21.2399 18.7552 21.4308 18.5741 21.7175L16.493 25.537L3.46484 25.5367C2.92209 25.5367 2.56018 25.9187 2.56018 26.4915C2.56018 27.0642 2.92212 27.4462 3.46484 27.4462H17.1264C17.4883 27.4462 17.7597 27.2554 17.9405 26.9687L19.569 23.9131L22.1022 27.0642C22.283 27.3506 22.6449 27.4462 22.9163 27.3506C23.2782 27.2551 23.459 27.0642 23.6401 26.6823L25.0879 22.4808L26.8972 28.5919C26.9877 28.9739 27.3497 29.2603 27.8018 29.2603C28.0732 29.2603 28.3446 29.0694 28.5257 28.8783L31.6016 24.1996L32.4157 26.6823C32.5063 27.0643 32.8682 27.3507 33.2299 27.3507H45.0827C45.6255 27.3507 45.9874 26.9687 45.9874 26.3959C45.9874 25.8231 45.6254 25.6319 45.0827 25.6319L45.0826 25.6319Z" fill="#285BF4"/>
</svg>
