<svg width="28" height="28" viewBox="0 0 28 28" fill="none" xmlns="http://www.w3.org/2000/svg">
<path d="M14.6145 7.42994V5.78774C14.6145 5.44695 14.3395 5.17188 13.9987 5.17188C13.6579 5.17188 13.3828 5.44695 13.3828 5.78774V7.43008C13.3828 7.77087 13.6579 8.04594 13.9987 8.04594C14.3395 8.04581 14.6145 7.77073 14.6145 7.42994Z" fill="#285BF4"/>
<path d="M13.9987 19.9512C13.6579 19.9512 13.3828 20.2262 13.3828 20.567V22.2094C13.3828 22.5502 13.6579 22.8252 13.9987 22.8252C14.3395 22.8252 14.6145 22.5502 14.6145 22.2094V20.567C14.6145 20.2262 14.3395 19.9512 13.9987 19.9512Z" fill="#285BF4"/>
<path d="M9.35551 9.97082C9.51154 9.97082 9.67169 9.90923 9.79073 9.79018C10.033 9.54796 10.033 9.15796 9.79073 8.91974L8.62869 7.75784C8.38647 7.51562 7.99646 7.51562 7.75825 7.75784C7.52015 8.00006 7.51603 8.39006 7.75825 8.62828L8.92015 9.79018C9.03934 9.90923 9.19536 9.97082 9.35551 9.97082Z" fill="#285BF4"/>
<path d="M19.0779 18.2071C18.8357 17.9648 18.4457 17.9648 18.2075 18.2071C17.9694 18.4493 17.9652 18.8393 18.2075 19.0775L19.3694 20.2394C19.4884 20.3584 19.6486 20.42 19.8046 20.42C19.9606 20.42 20.1208 20.3584 20.2398 20.2394C20.482 19.9972 20.482 19.6072 20.2398 19.369L19.0779 18.2071Z" fill="#285BF4"/>
<path d="M8.0458 14.0006C8.0458 13.6598 7.77073 13.3847 7.42994 13.3847H5.78774C5.44695 13.3847 5.17188 13.6598 5.17188 14.0006C5.17188 14.3414 5.44695 14.6164 5.78774 14.6164H7.43008C7.77073 14.6164 8.0458 14.3414 8.0458 14.0006Z" fill="#285BF4"/>
<path d="M22.2113 13.3848H20.569C20.2282 13.3848 19.9531 13.6598 19.9531 14.0006C19.9531 14.3414 20.2282 14.6165 20.569 14.6165H22.2113C22.5521 14.6165 22.8272 14.3414 22.8272 14.0006C22.8272 13.6598 22.5521 13.3848 22.2113 13.3848Z" fill="#285BF4"/>
<path d="M8.92169 18.2059L7.75979 19.3679C7.51757 19.6102 7.51757 20.0002 7.75979 20.2384C7.87884 20.3574 8.03899 20.419 8.19501 20.419C8.35103 20.419 8.51119 20.3574 8.63023 20.2384L9.79214 19.0765C10.0344 18.8343 10.0344 18.4443 9.79214 18.206C9.54991 17.9678 9.15977 17.9678 8.92169 18.2059V18.2059Z" fill="#285BF4"/>
<path d="M19.0755 9.79059L20.2374 8.62869C20.4797 8.38647 20.4797 7.99646 20.2374 7.75825C19.9952 7.52015 19.6052 7.51603 19.367 7.75825L18.2051 8.92015C17.9629 9.16237 17.9629 9.55238 18.2051 9.79059C18.3242 9.90964 18.4843 9.97123 18.6403 9.97123C18.7964 9.97123 18.9565 9.90964 19.0755 9.79059Z" fill="#285BF4"/>
<path d="M13.9993 8.86914C11.1704 8.86914 8.86719 11.1724 8.86719 14.0012C8.86719 16.83 11.1705 19.1333 13.9993 19.1333C16.828 19.1333 19.1313 16.83 19.1313 14.0012C19.1313 11.1724 16.828 8.86914 13.9993 8.86914ZM13.9993 17.9015C11.8479 17.9015 10.0989 16.1525 10.0989 14.0012C10.0989 11.8499 11.8479 10.1009 13.9993 10.1009C16.1506 10.1009 17.8996 11.8499 17.8996 14.0012C17.8996 16.1525 16.1506 17.9015 13.9993 17.9015Z" fill="#285BF4"/>
</svg>
