<svg width="28" height="28" viewBox="0 0 28 28" fill="none" xmlns="http://www.w3.org/2000/svg">
<path d="M7.42577 20.0397H9.80543C9.98498 21.0898 10.6388 21.991 11.5684 22.4698C12.4981 22.9486 13.594 22.9486 14.5236 22.4698C15.4532 21.991 16.107 21.0898 16.2866 20.0397H18.6663C19.254 20.0647 19.81 19.7667 20.1251 19.2578C20.4401 18.7488 20.4663 18.1063 20.1936 17.5723C19.921 17.0383 19.3911 16.6938 18.8034 16.6687V15.7951C20.1714 15.262 21.2157 14.1015 21.6233 12.661C22.0308 11.2207 21.7543 9.66781 20.8767 8.46755C19.999 7.26739 18.6221 6.55945 17.1585 6.5557C16.4958 6.55683 15.8413 6.70431 15.2394 6.98837C15.2168 6.18537 14.7779 5.4559 14.0881 5.0744C13.3982 4.6929 12.5622 4.71762 11.8949 5.13898C11.2275 5.56048 10.8303 6.31468 10.8528 7.11755V7.2861C9.79768 7.72917 8.89527 8.48398 8.26057 9.45466C7.62572 10.4252 7.28742 11.5675 7.28877 12.7357V16.6685C6.85243 16.6872 6.44132 16.8826 6.14576 17.2118C5.85006 17.5411 5.69414 17.9772 5.71237 18.4243C5.73061 18.8713 5.9213 19.2926 6.24258 19.5954C6.56399 19.8984 6.98954 20.0582 7.42588 20.0395L7.42577 20.0397ZM13.0462 21.7251C12.5603 21.7248 12.0881 21.5591 11.704 21.254C11.3199 20.9489 11.0457 20.5217 10.9241 20.0397H15.1709C15.0493 20.5222 14.7746 20.9498 14.3899 21.2549C14.0054 21.56 13.5326 21.7254 13.0462 21.7251ZM20.7226 11.3313C20.7226 12.2999 20.3471 13.2288 19.6787 13.9136C19.0104 14.5985 18.1038 14.9832 17.1585 14.9832C16.2133 14.9832 15.3067 14.5985 14.6384 13.9136C13.97 13.2288 13.5945 12.2999 13.5945 11.3313C13.5945 10.3628 13.97 9.43389 14.6384 8.74904C15.3067 8.06419 16.2133 7.67945 17.1585 7.67945C18.1038 7.67945 19.0104 8.06419 19.6787 8.74904C20.3471 9.43389 20.7226 10.3628 20.7226 11.3313ZM13.0462 5.99397C13.3074 5.99484 13.5597 6.09128 13.7578 6.26585C13.9558 6.44042 14.0865 6.6817 14.1264 6.94631C13.4125 6.80861 12.6799 6.80861 11.966 6.94631C12.0059 6.68169 12.1366 6.4404 12.3346 6.26585C12.5326 6.09128 12.785 5.99485 13.0462 5.99397H13.0462ZM7.0338 17.958C7.13747 17.851 7.27871 17.7913 7.42583 17.7922H7.83707C7.98247 17.7922 8.122 17.733 8.22481 17.6277C8.32762 17.5223 8.38539 17.3794 8.38539 17.2304V12.7358C8.38551 11.7328 8.69394 10.7553 9.26673 9.94204C9.83953 9.12877 10.6477 8.52078 11.5767 8.20464C12.2922 7.95859 13.0558 7.89689 13.8 8.02481C12.9522 8.93012 12.4863 10.1409 12.5027 11.3955C12.5192 12.6499 13.0168 13.8474 13.888 14.7292C14.7592 15.6108 15.9341 16.1057 17.1585 16.1069C17.3419 16.1062 17.5249 16.0939 17.7068 16.0704V17.2306C17.7068 17.3796 17.7646 17.5225 17.8674 17.6279C17.9702 17.7332 18.1097 17.7924 18.2551 17.7924H18.6664C18.8118 17.7924 18.9513 17.8516 19.0541 17.9569C19.1569 18.0623 19.2147 18.2052 19.2147 18.3542C19.2147 18.5032 19.1569 18.6462 19.0541 18.7515C18.9513 18.8569 18.8118 18.9161 18.6664 18.9161H7.42589C7.28049 18.9161 7.14096 18.8569 7.03816 18.7515C6.93535 18.6462 6.87758 18.5032 6.87758 18.3542C6.87672 18.2063 6.9329 18.0639 7.03387 17.9582L7.0338 17.958Z" fill="#285BF4"/>
<path d="M16.9642 11.8576L19.0889 12.7003L19.4837 11.6497L17.7099 10.9474V8.24219H16.6133V11.3322C16.613 11.4459 16.6465 11.557 16.7091 11.6508C16.7718 11.7446 16.8608 11.8167 16.9642 11.8576L16.9642 11.8576Z" fill="#285BF4"/>
</svg>
