<svg width="28" height="28" viewBox="0 0 28 28" fill="none" xmlns="http://www.w3.org/2000/svg">
<path d="M20.6346 13.2934C20.6346 12.9164 20.9403 12.6104 21.3176 12.6104C21.6946 12.6104 22.0003 12.9164 22.0003 13.2934V22.1459C22.0003 22.5232 21.6946 22.8289 21.3176 22.8289C20.9403 22.8289 20.6346 22.5232 20.6346 22.1459V13.2934ZM20.6346 5.07359C20.6346 4.69633 20.9403 4.39062 21.3176 4.39062C21.6946 4.39062 22.0003 4.69633 22.0003 5.07359V9.17091C22.0003 9.54794 21.6946 9.85364 21.3176 9.85364C20.9403 9.85364 20.6346 9.54794 20.6346 9.17091V5.07359ZM19.9516 9.85364V12.5853H22.6833V9.85364H19.9516ZM22.6846 8.48794C23.4382 8.48794 24.0489 9.09868 24.0489 9.85247V12.5866C24.0489 13.3402 23.4382 13.951 22.6846 13.951H19.9505C19.1968 13.951 18.5859 13.3402 18.5859 12.5866V9.85247C18.5859 9.09885 19.1967 8.48794 19.9505 8.48794H22.6846Z" fill="#285BF4"/>
<path d="M13.8025 13.9261C13.8025 14.3032 14.1084 14.6091 14.4855 14.6091C14.8625 14.6091 15.1684 14.3032 15.1684 13.9261V5.07359C15.1684 4.69633 14.8625 4.39062 14.4855 4.39062C14.1084 4.39062 13.8025 4.69633 13.8025 5.07359V13.9261ZM13.8025 22.1459C13.8025 22.5232 14.1084 22.8289 14.4855 22.8289C14.8625 22.8289 15.1684 22.5232 15.1684 22.1459V18.0486C15.1684 17.6716 14.8625 17.3659 14.4855 17.3659C14.1084 17.3659 13.8025 17.6716 13.8025 18.0486V22.1459ZM13.1198 17.3659V14.6343H15.8512V17.3659H13.1198ZM15.8526 18.7316C16.6062 18.7316 17.2171 18.1209 17.2171 17.3671V14.6329C17.2171 13.8793 16.6061 13.2686 15.8526 13.2686H13.1184C12.3648 13.2686 11.7539 13.8793 11.7539 14.6329V17.3671C11.7539 18.1207 12.3649 18.7316 13.1184 18.7316H15.8526Z" fill="#285BF4"/>
<path d="M6.97444 13.2934C6.97444 12.9164 7.28014 12.6104 7.65717 12.6104C8.03443 12.6104 8.34013 12.9164 8.34013 13.2934V22.1459C8.34013 22.5232 8.03443 22.8289 7.65717 22.8289C7.28013 22.8289 6.97444 22.5232 6.97444 22.1459V13.2934ZM6.97444 5.07359C6.97444 4.69633 7.28014 4.39062 7.65717 4.39062C8.03443 4.39062 8.34013 4.69633 8.34013 5.07359V9.17091C8.34013 9.54794 8.03443 9.85364 7.65717 9.85364C7.28013 9.85364 6.97444 9.54794 6.97444 9.17091V5.07359ZM6.29148 9.85364V12.5853H9.0231V9.85364H6.29148ZM9.02427 8.48794C9.77788 8.48794 10.3888 9.09868 10.3888 9.85247V12.5866C10.3888 13.3402 9.77806 13.951 9.02427 13.951H6.29013C5.53652 13.951 4.92578 13.3402 4.92578 12.5866V9.85247C4.92578 9.09885 5.53652 8.48794 6.29013 8.48794H9.02427Z" fill="#285BF4"/>
</svg>
