<svg width="28" height="28" viewBox="0 0 28 28" fill="none" xmlns="http://www.w3.org/2000/svg">
<path d="M17.8717 16.518C17.5672 16.518 17.286 16.6804 17.1336 16.9441C16.9815 17.2077 16.9815 17.5325 17.1336 17.7961C17.286 18.0597 17.5672 18.2221 17.8717 18.2221C19.2469 18.2221 20.5177 17.4885 21.2052 16.2976C21.8928 15.1065 21.8928 13.6393 21.2052 12.448C20.5177 11.257 19.2469 10.5234 17.8717 10.5234C17.5672 10.5234 17.286 10.6858 17.1336 10.9494C16.9815 11.213 16.9815 11.5379 17.1336 11.8014C17.286 12.0652 17.5672 12.2276 17.8717 12.2276C18.638 12.2276 19.3462 12.6364 19.7294 13.3001C20.1126 13.9637 20.1126 14.7815 19.7294 15.4452C19.3462 16.1089 18.638 16.5177 17.8717 16.5177V16.518Z" fill="#285BF4"/>
<path d="M9.89488 18.4403L15.4033 22.3131C15.5745 22.4333 15.784 22.4865 15.9918 22.4623C16.1996 22.4381 16.3913 22.3384 16.5302 22.1819C16.6692 22.0256 16.7459 21.8235 16.7454 21.6143V7.12895C16.7453 6.91989 16.6684 6.71824 16.5294 6.56236C16.3903 6.40634 16.1987 6.30693 15.9912 6.28301C15.7836 6.25894 15.5744 6.31213 15.4034 6.43234L9.8949 10.3028H7.12561C6.8996 10.3028 6.6828 10.3926 6.52307 10.5525C6.36319 10.7122 6.27344 10.929 6.27344 11.155V17.5882C6.27344 17.8142 6.36319 18.031 6.52307 18.1907C6.6828 18.3506 6.8996 18.4404 7.12561 18.4404L9.89488 18.4403ZM7.97778 12.0071H10.1931C10.4282 12.0064 10.6524 11.9085 10.8129 11.7366L15.0413 8.76714V19.9761L10.8171 17.0067C10.6566 16.8348 10.4322 16.7369 10.1971 16.7361H7.98387L7.97778 12.0071Z" fill="#285BF4"/>
</svg>
